<?xml version="1.0" encoding="utf-8"?>
<!-- Uploaded to: SVG Repo, www.svgrepo.com, Generator: SVG Repo Mixer Tools -->
<svg width="800px" height="800px" viewBox="0 0 1024 1024" class="icon"  version="1.1" xmlns="http://www.w3.org/2000/svg"><path d="M853.333333 341.333333H170.666667v512c0 46.933333 38.4 85.333333 85.333333 85.333334h512c46.933333 0 85.333333-38.4 85.333333-85.333334V341.333333z" fill="#616161" /><path d="M768 85.333333H256C209.066667 85.333333 170.666667 123.733333 170.666667 170.666667v192h682.666666V170.666667c0-46.933333-38.4-85.333333-85.333333-85.333334z" fill="#424242" /><path d="M768 298.666667H256c-12.8 0-21.333333-8.533333-21.333333-21.333334V170.666667c0-12.8 8.533333-21.333333 21.333333-21.333334h512c12.8 0 21.333333 8.533333 21.333333 21.333334v106.666666c0 12.8-8.533333 21.333333-21.333333 21.333334z" fill="#9CCC65" /><path d="M704 213.333333h42.666667v42.666667h-42.666667zM618.666667 213.333333h42.666666v42.666667h-42.666666z" fill="#33691E" /><path d="M768 490.666667h-64c-12.8 0-21.333333-8.533333-21.333333-21.333334v-42.666666c0-12.8 8.533333-21.333333 21.333333-21.333334h64c12.8 0 21.333333 8.533333 21.333333 21.333334v42.666666c0 12.8-8.533333 21.333333-21.333333 21.333334z" fill="#FF5252" /><path d="M320 490.666667h-64c-12.8 0-21.333333-8.533333-21.333333-21.333334v-42.666666c0-12.8 8.533333-21.333333 21.333333-21.333334h64c12.8 0 21.333333 8.533333 21.333333 21.333334v42.666666c0 12.8-8.533333 21.333333-21.333333 21.333334zM469.333333 490.666667h-64c-12.8 0-21.333333-8.533333-21.333333-21.333334v-42.666666c0-12.8 8.533333-21.333333 21.333333-21.333334h64c12.8 0 21.333333 8.533333 21.333334 21.333334v42.666666c0 12.8-8.533333 21.333333-21.333334 21.333334zM618.666667 490.666667h-64c-12.8 0-21.333333-8.533333-21.333334-21.333334v-42.666666c0-12.8 8.533333-21.333333 21.333334-21.333334h64c12.8 0 21.333333 8.533333 21.333333 21.333334v42.666666c0 12.8-8.533333 21.333333-21.333333 21.333334zM320 618.666667h-64c-12.8 0-21.333333-8.533333-21.333333-21.333334v-42.666666c0-12.8 8.533333-21.333333 21.333333-21.333334h64c12.8 0 21.333333 8.533333 21.333333 21.333334v42.666666c0 12.8-8.533333 21.333333-21.333333 21.333334zM469.333333 618.666667h-64c-12.8 0-21.333333-8.533333-21.333333-21.333334v-42.666666c0-12.8 8.533333-21.333333 21.333333-21.333334h64c12.8 0 21.333333 8.533333 21.333334 21.333334v42.666666c0 12.8-8.533333 21.333333-21.333334 21.333334zM618.666667 618.666667h-64c-12.8 0-21.333333-8.533333-21.333334-21.333334v-42.666666c0-12.8 8.533333-21.333333 21.333334-21.333334h64c12.8 0 21.333333 8.533333 21.333333 21.333334v42.666666c0 12.8-8.533333 21.333333-21.333333 21.333334zM320 746.666667h-64c-12.8 0-21.333333-8.533333-21.333333-21.333334v-42.666666c0-12.8 8.533333-21.333333 21.333333-21.333334h64c12.8 0 21.333333 8.533333 21.333333 21.333334v42.666666c0 12.8-8.533333 21.333333-21.333333 21.333334zM469.333333 746.666667h-64c-12.8 0-21.333333-8.533333-21.333333-21.333334v-42.666666c0-12.8 8.533333-21.333333 21.333333-21.333334h64c12.8 0 21.333333 8.533333 21.333334 21.333334v42.666666c0 12.8-8.533333 21.333333-21.333334 21.333334zM618.666667 746.666667h-64c-12.8 0-21.333333-8.533333-21.333334-21.333334v-42.666666c0-12.8 8.533333-21.333333 21.333334-21.333334h64c12.8 0 21.333333 8.533333 21.333333 21.333334v42.666666c0 12.8-8.533333 21.333333-21.333333 21.333334zM320 874.666667h-64c-12.8 0-21.333333-8.533333-21.333333-21.333334v-42.666666c0-12.8 8.533333-21.333333 21.333333-21.333334h64c12.8 0 21.333333 8.533333 21.333333 21.333334v42.666666c0 12.8-8.533333 21.333333-21.333333 21.333334zM469.333333 874.666667h-64c-12.8 0-21.333333-8.533333-21.333333-21.333334v-42.666666c0-12.8 8.533333-21.333333 21.333333-21.333334h64c12.8 0 21.333333 8.533333 21.333334 21.333334v42.666666c0 12.8-8.533333 21.333333-21.333334 21.333334zM618.666667 874.666667h-64c-12.8 0-21.333333-8.533333-21.333334-21.333334v-42.666666c0-12.8 8.533333-21.333333 21.333334-21.333334h64c12.8 0 21.333333 8.533333 21.333333 21.333334v42.666666c0 12.8-8.533333 21.333333-21.333333 21.333334z" fill="#E0E0E0" /><path d="M768 618.666667h-64c-12.8 0-21.333333-8.533333-21.333333-21.333334v-42.666666c0-12.8 8.533333-21.333333 21.333333-21.333334h64c12.8 0 21.333333 8.533333 21.333333 21.333334v42.666666c0 12.8-8.533333 21.333333-21.333333 21.333334zM768 746.666667h-64c-12.8 0-21.333333-8.533333-21.333333-21.333334v-42.666666c0-12.8 8.533333-21.333333 21.333333-21.333334h64c12.8 0 21.333333 8.533333 21.333333 21.333334v42.666666c0 12.8-8.533333 21.333333-21.333333 21.333334zM768 874.666667h-64c-12.8 0-21.333333-8.533333-21.333333-21.333334v-42.666666c0-12.8 8.533333-21.333333 21.333333-21.333334h64c12.8 0 21.333333 8.533333 21.333333 21.333334v42.666666c0 12.8-8.533333 21.333333-21.333333 21.333334z" fill="#BDBDBD" /></svg>